<svg width="350" height="306" viewBox="0 0 350 306" fill="none" xmlns="http://www.w3.org/2000/svg">
<path d="M88.5 238.5H299.5" stroke="#00E599" stroke-width="3" stroke-linecap="square"/>
<path d="M88.5 238.5L191.5 60.5" stroke="#00E599" stroke-width="3" stroke-linecap="square"/>
<path d="M296.5 238.5L193.5 60.5" stroke="#00E599" stroke-width="3" stroke-linecap="square"/>
<path d="M296.5 238.5L193.5 60.5" stroke="#00E599" stroke-width="3" stroke-linecap="square"/>
<path d="M196.5 238.5L144.5 149.5" stroke="#00E599" stroke-width="3" stroke-linecap="square"/>
<path d="M191.5 238.5L243.5 149.5" stroke="#00E599" stroke-width="3" stroke-linecap="square"/>
<path d="M141.5 149.5H243.5" stroke="#00E599" stroke-width="3" stroke-linecap="square"/>
<g filter="url(#filter0_dd)">
<path fill-rule="evenodd" clip-rule="evenodd" d="M195 10L238.734 35.25V85.75L195 111L151.266 85.75V35.25L195 10Z" fill="#F0F5F6"/>
</g>
<circle cx="194.5" cy="49" r="6" fill="#00E599"/>
<path fill-rule="evenodd" clip-rule="evenodd" d="M194.535 43.4293C191.447 43.4293 188.936 45.9406 188.936 49.028C188.936 52.1154 191.447 54.6267 194.535 54.6267C197.622 54.6267 200.134 52.1154 200.134 49.028C200.134 45.9406 197.622 43.4293 194.535 43.4293ZM194.535 57.0589C190.107 57.0589 186.504 53.456 186.504 49.028C186.504 44.6 190.107 41 194.535 41C198.963 41 202.564 44.6 202.564 49.028C202.564 53.456 198.963 57.0589 194.535 57.0589Z" fill="#000033"/>
<path fill-rule="evenodd" clip-rule="evenodd" d="M187.386 58.8081L182.391 60.742C181.518 61.0789 180.931 61.9372 180.931 62.8732V74.2953C180.931 75.9282 182.257 77.2545 183.888 77.2545H205.182C206.812 77.2545 208.138 75.9282 208.138 74.2953V62.8732C208.138 61.9372 207.552 61.0789 206.678 60.742L201.684 58.8081L195.587 69.3834C195.154 70.1365 193.915 70.1365 193.482 69.3834L187.386 58.8081ZM205.182 79.6852H183.888C180.918 79.6852 178.5 77.266 178.5 74.2953V62.8732C178.5 60.9393 179.711 59.1709 181.514 58.4754L187.48 56.1657C188.04 55.9525 188.674 56.1729 188.972 56.6913L194.534 66.3421L200.099 56.6913C200.397 56.1714 201.029 55.9497 201.589 56.1657L207.555 58.4754C209.358 59.1709 210.57 60.9393 210.57 62.8732V74.2953C210.57 77.266 208.152 79.6852 205.182 79.6852Z" fill="#000033"/>
<g filter="url(#filter1_dd)">
<path fill-rule="evenodd" clip-rule="evenodd" d="M246 99L289.734 124.25V174.75L246 200L202.266 174.75V124.25L246 99Z" fill="#F0F5F6"/>
</g>
<circle cx="245.5" cy="138" r="6" fill="#00E599"/>
<path fill-rule="evenodd" clip-rule="evenodd" d="M245.535 132.429C242.447 132.429 239.936 134.941 239.936 138.028C239.936 141.115 242.447 143.627 245.535 143.627C248.622 143.627 251.134 141.115 251.134 138.028C251.134 134.941 248.622 132.429 245.535 132.429ZM245.535 146.059C241.107 146.059 237.504 142.456 237.504 138.028C237.504 133.6 241.107 130 245.535 130C249.963 130 253.564 133.6 253.564 138.028C253.564 142.456 249.963 146.059 245.535 146.059Z" fill="#000033"/>
<path fill-rule="evenodd" clip-rule="evenodd" d="M238.386 147.808L233.391 149.742C232.518 150.079 231.931 150.937 231.931 151.873V163.295C231.931 164.928 233.257 166.254 234.888 166.254H256.182C257.812 166.254 259.138 164.928 259.138 163.295V151.873C259.138 150.937 258.552 150.079 257.678 149.742L252.684 147.808L246.587 158.383C246.154 159.137 244.915 159.137 244.482 158.383L238.386 147.808ZM256.182 168.685H234.888C231.918 168.685 229.5 166.266 229.5 163.295V151.873C229.5 149.939 230.711 148.171 232.514 147.475L238.48 145.166C239.04 144.953 239.674 145.173 239.972 145.691L245.534 155.342L251.099 145.691C251.397 145.171 252.029 144.95 252.589 145.166L258.555 147.475C260.358 148.171 261.57 149.939 261.57 151.873V163.295C261.57 166.266 259.152 168.685 256.182 168.685Z" fill="#000033"/>
<g filter="url(#filter2_dd)">
<path fill-rule="evenodd" clip-rule="evenodd" d="M141 99L184.734 124.25V174.75L141 200L97.2657 174.75V124.25L141 99Z" fill="#F0F5F6"/>
</g>
<circle cx="140.5" cy="138" r="6" fill="#00E599"/>
<path fill-rule="evenodd" clip-rule="evenodd" d="M140.535 132.429C137.447 132.429 134.936 134.941 134.936 138.028C134.936 141.115 137.447 143.627 140.535 143.627C143.622 143.627 146.134 141.115 146.134 138.028C146.134 134.941 143.622 132.429 140.535 132.429ZM140.535 146.059C136.107 146.059 132.504 142.456 132.504 138.028C132.504 133.6 136.107 130 140.535 130C144.963 130 148.564 133.6 148.564 138.028C148.564 142.456 144.963 146.059 140.535 146.059Z" fill="#000033"/>
<path fill-rule="evenodd" clip-rule="evenodd" d="M133.386 147.808L128.391 149.742C127.518 150.079 126.931 150.937 126.931 151.873V163.295C126.931 164.928 128.257 166.254 129.888 166.254H151.182C152.812 166.254 154.138 164.928 154.138 163.295V151.873C154.138 150.937 153.552 150.079 152.678 149.742L147.684 147.808L141.587 158.383C141.154 159.137 139.915 159.137 139.482 158.383L133.386 147.808ZM151.182 168.685H129.888C126.918 168.685 124.5 166.266 124.5 163.295V151.873C124.5 149.939 125.711 148.171 127.514 147.475L133.48 145.166C134.04 144.953 134.674 145.173 134.972 145.691L140.534 155.342L146.099 145.691C146.397 145.171 147.029 144.95 147.589 145.166L153.555 147.475C155.358 148.171 156.57 149.939 156.57 151.873V163.295C156.57 166.266 154.152 168.685 151.182 168.685Z" fill="#000033"/>
<g filter="url(#filter3_dd)">
<path fill-rule="evenodd" clip-rule="evenodd" d="M299 185.5L342.734 210.75V261.25L299 286.5L255.266 261.25V210.75L299 185.5Z" fill="#F0F5F6"/>
</g>
<circle cx="298.5" cy="224.5" r="6" fill="#00E599"/>
<path fill-rule="evenodd" clip-rule="evenodd" d="M298.535 218.929C295.447 218.929 292.936 221.441 292.936 224.528C292.936 227.615 295.447 230.127 298.535 230.127C301.622 230.127 304.134 227.615 304.134 224.528C304.134 221.441 301.622 218.929 298.535 218.929ZM298.535 232.559C294.107 232.559 290.504 228.956 290.504 224.528C290.504 220.1 294.107 216.5 298.535 216.5C302.963 216.5 306.564 220.1 306.564 224.528C306.564 228.956 302.963 232.559 298.535 232.559Z" fill="#000033"/>
<path fill-rule="evenodd" clip-rule="evenodd" d="M291.386 234.308L286.391 236.242C285.518 236.579 284.931 237.437 284.931 238.373V249.795C284.931 251.428 286.257 252.754 287.888 252.754H309.182C310.812 252.754 312.138 251.428 312.138 249.795V238.373C312.138 237.437 311.552 236.579 310.678 236.242L305.684 234.308L299.587 244.883C299.154 245.637 297.915 245.637 297.482 244.883L291.386 234.308ZM309.182 255.185H287.888C284.918 255.185 282.5 252.766 282.5 249.795V238.373C282.5 236.439 283.711 234.671 285.514 233.975L291.48 231.666C292.04 231.453 292.674 231.673 292.972 232.191L298.534 241.842L304.099 232.191C304.397 231.671 305.029 231.45 305.589 231.666L311.555 233.975C313.358 234.671 314.57 236.439 314.57 238.373V249.795C314.57 252.766 312.152 255.185 309.182 255.185Z" fill="#000033"/>
<g filter="url(#filter4_dd)">
<path fill-rule="evenodd" clip-rule="evenodd" d="M194 185.5L237.734 210.75V261.25L194 286.5L150.266 261.25V210.75L194 185.5Z" fill="#F0F5F6"/>
</g>
<circle cx="193.5" cy="224.5" r="6" fill="#00E599"/>
<path fill-rule="evenodd" clip-rule="evenodd" d="M193.535 218.929C190.447 218.929 187.936 221.441 187.936 224.528C187.936 227.615 190.447 230.127 193.535 230.127C196.622 230.127 199.134 227.615 199.134 224.528C199.134 221.441 196.622 218.929 193.535 218.929ZM193.535 232.559C189.107 232.559 185.504 228.956 185.504 224.528C185.504 220.1 189.107 216.5 193.535 216.5C197.963 216.5 201.564 220.1 201.564 224.528C201.564 228.956 197.963 232.559 193.535 232.559Z" fill="#000033"/>
<path fill-rule="evenodd" clip-rule="evenodd" d="M186.386 234.308L181.391 236.242C180.518 236.579 179.931 237.437 179.931 238.373V249.795C179.931 251.428 181.257 252.754 182.888 252.754H204.182C205.812 252.754 207.138 251.428 207.138 249.795V238.373C207.138 237.437 206.552 236.579 205.678 236.242L200.684 234.308L194.587 244.883C194.154 245.637 192.915 245.637 192.482 244.883L186.386 234.308ZM204.182 255.185H182.888C179.918 255.185 177.5 252.766 177.5 249.795V238.373C177.5 236.439 178.711 234.671 180.514 233.975L186.48 231.666C187.04 231.453 187.674 231.673 187.972 232.191L193.534 241.842L199.099 232.191C199.397 231.671 200.029 231.45 200.589 231.666L206.555 233.975C208.358 234.671 209.57 236.439 209.57 238.373V249.795C209.57 252.766 207.152 255.185 204.182 255.185Z" fill="#000033"/>
<g filter="url(#filter5_dd)">
<path fill-rule="evenodd" clip-rule="evenodd" d="M89 185.5L132.734 210.75V261.25L89 286.5L45.2657 261.25V210.75L89 185.5Z" fill="#F0F5F6"/>
</g>
<circle cx="88.5" cy="224.5" r="6" fill="#00E599"/>
<path fill-rule="evenodd" clip-rule="evenodd" d="M88.5348 218.929C85.4474 218.929 82.9361 221.441 82.9361 224.528C82.9361 227.615 85.4474 230.127 88.5348 230.127C91.6221 230.127 94.1335 227.615 94.1335 224.528C94.1335 221.441 91.6221 218.929 88.5348 218.929ZM88.5348 232.559C84.1068 232.559 80.5039 228.956 80.5039 224.528C80.5039 220.1 84.1068 216.5 88.5348 216.5C92.9628 216.5 96.5642 220.1 96.5642 224.528C96.5642 228.956 92.9628 232.559 88.5348 232.559Z" fill="#000033"/>
<path fill-rule="evenodd" clip-rule="evenodd" d="M81.3862 234.308L76.3909 236.242C75.5182 236.579 74.9307 237.437 74.9307 238.373V249.795C74.9307 251.428 76.257 252.754 77.8885 252.754H99.1818C100.812 252.754 102.138 251.428 102.138 249.795V238.373C102.138 237.437 101.552 236.579 100.678 236.242L95.684 234.308L89.587 244.883C89.1536 245.637 87.9152 245.637 87.4818 244.883L81.3862 234.308ZM99.1818 255.185H77.8885C74.9178 255.185 72.5 252.766 72.5 249.795V238.373C72.5 236.439 73.711 234.671 75.5139 233.975L81.4798 231.666C82.04 231.453 82.6736 231.673 82.9717 232.191L88.5344 241.842L94.0986 232.191C94.3966 231.671 95.0288 231.45 95.589 231.666L101.555 233.975C103.358 234.671 104.57 236.439 104.57 238.373V249.795C104.57 252.766 102.152 255.185 99.1818 255.185Z" fill="#000033"/>
<defs>
<filter id="filter0_dd" x="106.266" y="0" width="132.469" height="130" filterUnits="userSpaceOnUse" color-interpolation-filters="sRGB">
<feFlood flood-opacity="0" result="BackgroundImageFix"/>
<feColorMatrix in="SourceAlpha" type="matrix" values="0 0 0 0 0 0 0 0 0 0 0 0 0 0 0 0 0 0 127 0"/>
<feOffset dx="-33" dy="7"/>
<feGaussianBlur stdDeviation="6"/>
<feColorMatrix type="matrix" values="0 0 0 0 0.316369 0 0 0 0 0.366988 0 0 0 0 0.353496 0 0 0 0.25741 0"/>
<feBlend mode="normal" in2="BackgroundImageFix" result="effect1_dropShadow"/>
<feColorMatrix in="SourceAlpha" type="matrix" values="0 0 0 0 0 0 0 0 0 0 0 0 0 0 0 0 0 0 127 0"/>
<feOffset dx="-16" dy="2"/>
<feGaussianBlur stdDeviation="6"/>
<feColorMatrix type="matrix" values="0 0 0 0 0 0 0 0 0 0 0 0 0 0 0 0 0 0 0.144615 0"/>
<feBlend mode="normal" in2="effect1_dropShadow" result="effect2_dropShadow"/>
<feBlend mode="normal" in="SourceGraphic" in2="effect2_dropShadow" result="shape"/>
</filter>
<filter id="filter1_dd" x="157.266" y="89" width="132.469" height="130" filterUnits="userSpaceOnUse" color-interpolation-filters="sRGB">
<feFlood flood-opacity="0" result="BackgroundImageFix"/>
<feColorMatrix in="SourceAlpha" type="matrix" values="0 0 0 0 0 0 0 0 0 0 0 0 0 0 0 0 0 0 127 0"/>
<feOffset dx="-33" dy="7"/>
<feGaussianBlur stdDeviation="6"/>
<feColorMatrix type="matrix" values="0 0 0 0 0.316369 0 0 0 0 0.366988 0 0 0 0 0.353496 0 0 0 0.25741 0"/>
<feBlend mode="normal" in2="BackgroundImageFix" result="effect1_dropShadow"/>
<feColorMatrix in="SourceAlpha" type="matrix" values="0 0 0 0 0 0 0 0 0 0 0 0 0 0 0 0 0 0 127 0"/>
<feOffset dx="-16" dy="2"/>
<feGaussianBlur stdDeviation="6"/>
<feColorMatrix type="matrix" values="0 0 0 0 0 0 0 0 0 0 0 0 0 0 0 0 0 0 0.144615 0"/>
<feBlend mode="normal" in2="effect1_dropShadow" result="effect2_dropShadow"/>
<feBlend mode="normal" in="SourceGraphic" in2="effect2_dropShadow" result="shape"/>
</filter>
<filter id="filter2_dd" x="52.2657" y="89" width="132.469" height="130" filterUnits="userSpaceOnUse" color-interpolation-filters="sRGB">
<feFlood flood-opacity="0" result="BackgroundImageFix"/>
<feColorMatrix in="SourceAlpha" type="matrix" values="0 0 0 0 0 0 0 0 0 0 0 0 0 0 0 0 0 0 127 0"/>
<feOffset dx="-33" dy="7"/>
<feGaussianBlur stdDeviation="6"/>
<feColorMatrix type="matrix" values="0 0 0 0 0.316369 0 0 0 0 0.366988 0 0 0 0 0.353496 0 0 0 0.25741 0"/>
<feBlend mode="normal" in2="BackgroundImageFix" result="effect1_dropShadow"/>
<feColorMatrix in="SourceAlpha" type="matrix" values="0 0 0 0 0 0 0 0 0 0 0 0 0 0 0 0 0 0 127 0"/>
<feOffset dx="-16" dy="2"/>
<feGaussianBlur stdDeviation="6"/>
<feColorMatrix type="matrix" values="0 0 0 0 0 0 0 0 0 0 0 0 0 0 0 0 0 0 0.144615 0"/>
<feBlend mode="normal" in2="effect1_dropShadow" result="effect2_dropShadow"/>
<feBlend mode="normal" in="SourceGraphic" in2="effect2_dropShadow" result="shape"/>
</filter>
<filter id="filter3_dd" x="210.266" y="175.5" width="132.469" height="130" filterUnits="userSpaceOnUse" color-interpolation-filters="sRGB">
<feFlood flood-opacity="0" result="BackgroundImageFix"/>
<feColorMatrix in="SourceAlpha" type="matrix" values="0 0 0 0 0 0 0 0 0 0 0 0 0 0 0 0 0 0 127 0"/>
<feOffset dx="-33" dy="7"/>
<feGaussianBlur stdDeviation="6"/>
<feColorMatrix type="matrix" values="0 0 0 0 0.316369 0 0 0 0 0.366988 0 0 0 0 0.353496 0 0 0 0.25741 0"/>
<feBlend mode="normal" in2="BackgroundImageFix" result="effect1_dropShadow"/>
<feColorMatrix in="SourceAlpha" type="matrix" values="0 0 0 0 0 0 0 0 0 0 0 0 0 0 0 0 0 0 127 0"/>
<feOffset dx="-16" dy="2"/>
<feGaussianBlur stdDeviation="6"/>
<feColorMatrix type="matrix" values="0 0 0 0 0 0 0 0 0 0 0 0 0 0 0 0 0 0 0.144615 0"/>
<feBlend mode="normal" in2="effect1_dropShadow" result="effect2_dropShadow"/>
<feBlend mode="normal" in="SourceGraphic" in2="effect2_dropShadow" result="shape"/>
</filter>
<filter id="filter4_dd" x="105.266" y="175.5" width="132.469" height="130" filterUnits="userSpaceOnUse" color-interpolation-filters="sRGB">
<feFlood flood-opacity="0" result="BackgroundImageFix"/>
<feColorMatrix in="SourceAlpha" type="matrix" values="0 0 0 0 0 0 0 0 0 0 0 0 0 0 0 0 0 0 127 0"/>
<feOffset dx="-33" dy="7"/>
<feGaussianBlur stdDeviation="6"/>
<feColorMatrix type="matrix" values="0 0 0 0 0.316369 0 0 0 0 0.366988 0 0 0 0 0.353496 0 0 0 0.25741 0"/>
<feBlend mode="normal" in2="BackgroundImageFix" result="effect1_dropShadow"/>
<feColorMatrix in="SourceAlpha" type="matrix" values="0 0 0 0 0 0 0 0 0 0 0 0 0 0 0 0 0 0 127 0"/>
<feOffset dx="-16" dy="2"/>
<feGaussianBlur stdDeviation="6"/>
<feColorMatrix type="matrix" values="0 0 0 0 0 0 0 0 0 0 0 0 0 0 0 0 0 0 0.144615 0"/>
<feBlend mode="normal" in2="effect1_dropShadow" result="effect2_dropShadow"/>
<feBlend mode="normal" in="SourceGraphic" in2="effect2_dropShadow" result="shape"/>
</filter>
<filter id="filter5_dd" x="0.265747" y="175.5" width="132.469" height="130" filterUnits="userSpaceOnUse" color-interpolation-filters="sRGB">
<feFlood flood-opacity="0" result="BackgroundImageFix"/>
<feColorMatrix in="SourceAlpha" type="matrix" values="0 0 0 0 0 0 0 0 0 0 0 0 0 0 0 0 0 0 127 0"/>
<feOffset dx="-33" dy="7"/>
<feGaussianBlur stdDeviation="6"/>
<feColorMatrix type="matrix" values="0 0 0 0 0.316369 0 0 0 0 0.366988 0 0 0 0 0.353496 0 0 0 0.25741 0"/>
<feBlend mode="normal" in2="BackgroundImageFix" result="effect1_dropShadow"/>
<feColorMatrix in="SourceAlpha" type="matrix" values="0 0 0 0 0 0 0 0 0 0 0 0 0 0 0 0 0 0 127 0"/>
<feOffset dx="-16" dy="2"/>
<feGaussianBlur stdDeviation="6"/>
<feColorMatrix type="matrix" values="0 0 0 0 0 0 0 0 0 0 0 0 0 0 0 0 0 0 0.144615 0"/>
<feBlend mode="normal" in2="effect1_dropShadow" result="effect2_dropShadow"/>
<feBlend mode="normal" in="SourceGraphic" in2="effect2_dropShadow" result="shape"/>
</filter>
</defs>
</svg>
