<svg width="61" height="61" viewBox="0 0 61 61" fill="none" xmlns="http://www.w3.org/2000/svg">
<circle cx="30.5" cy="30.5" r="30.5" fill="#00E599"/>
<path fill-rule="evenodd" clip-rule="evenodd" d="M29.9986 33.1614C29.654 33.1614 29.3746 32.8821 29.3746 32.5374C29.3746 30.6664 27.5741 29.8253 24.6089 28.6626C23.2005 28.1104 21.7443 27.5394 20.483 26.7134C17.111 24.505 15.3897 21.0672 15.5055 16.7715C15.5913 13.5802 16.6505 11.0673 16.6955 10.962C16.7766 10.7722 16.9462 10.6349 17.1487 10.595C17.3512 10.5552 17.5603 10.6179 17.7073 10.7627C19.241 12.2737 20.5595 12.8381 22.3845 13.6193C23.7449 14.2016 25.2868 14.8617 27.32 16.0724C30.1788 17.7748 32.0402 21.1368 32.7029 25.7947C33.194 29.247 32.8675 32.1663 32.8533 32.2888C32.817 32.6037 32.5503 32.8413 32.2334 32.8413H32.2327C31.9153 32.8409 31.6489 32.6024 31.6134 32.2872C31.3346 29.8139 30.6133 27.6037 29.4697 25.7183C28.5582 24.2157 27.3762 22.9117 25.9565 21.8425C23.539 20.0219 21.2712 19.5157 21.2485 19.5109C20.9117 19.4379 20.6977 19.1058 20.7707 18.7689C20.8437 18.4322 21.1761 18.2181 21.5127 18.2912C21.616 18.3135 24.0733 18.8619 26.7073 20.8456C28.3708 22.0983 30.3201 24.1095 31.6016 27.1887C31.277 23.6657 30.1459 19.2078 26.6815 17.1447C24.7195 15.9763 23.218 15.3337 21.8933 14.7666C20.2805 14.0763 18.9589 13.5106 17.5395 12.3019C17.233 13.2604 16.7983 14.9365 16.7521 16.8423C16.6579 20.7195 18.1432 23.6892 21.1667 25.6693C22.3201 26.4246 23.7152 26.9717 25.0644 27.5008C27.797 28.5722 30.6226 29.6802 30.6226 32.5374C30.6226 32.8821 30.3432 33.1614 29.9986 33.1614Z" fill="#000033"/>
<path d="M29.9986 33.1614C29.654 33.1614 29.3746 32.8821 29.3746 32.5374C29.3746 30.6664 27.5741 29.8253 24.6089 28.6626C23.2005 28.1104 21.7443 27.5394 20.483 26.7134C17.111 24.505 15.3897 21.0672 15.5055 16.7715C15.5913 13.5802 16.6505 11.0673 16.6955 10.962C16.7766 10.7722 16.9462 10.6349 17.1487 10.595C17.3512 10.5552 17.5603 10.6179 17.7073 10.7627C19.241 12.2737 20.5595 12.8381 22.3845 13.6193C23.7449 14.2016 25.2868 14.8617 27.32 16.0724C30.1788 17.7748 32.0402 21.1368 32.7029 25.7947C33.194 29.247 32.8675 32.1663 32.8533 32.2888C32.817 32.6037 32.5503 32.8413 32.2334 32.8413H32.2327C31.9153 32.8409 31.6489 32.6024 31.6134 32.2872C31.3346 29.8139 30.6133 27.6037 29.4697 25.7183C28.5582 24.2157 27.3762 22.9117 25.9565 21.8425C23.539 20.0219 21.2712 19.5157 21.2485 19.5109C20.9117 19.4379 20.6977 19.1058 20.7707 18.7689C20.8437 18.4322 21.1761 18.2181 21.5127 18.2912C21.616 18.3135 24.0733 18.8619 26.7073 20.8456C28.3708 22.0983 30.3201 24.1095 31.6016 27.1887C31.277 23.6657 30.1459 19.2078 26.6815 17.1447C24.7195 15.9763 23.218 15.3337 21.8933 14.7666C20.2805 14.0763 18.9589 13.5106 17.5395 12.3019C17.233 13.2604 16.7983 14.9365 16.7521 16.8423C16.6579 20.7195 18.1432 23.6892 21.1667 25.6693C22.3201 26.4246 23.7152 26.9717 25.0644 27.5008C27.797 28.5722 30.6226 29.6802 30.6226 32.5374C30.6226 32.8821 30.3432 33.1614 29.9986 33.1614" stroke="#000033" stroke-width="0.5"/>
<path fill-rule="evenodd" clip-rule="evenodd" d="M34.3851 33.1615C34.0405 33.1615 33.7611 32.8822 33.7611 32.5375C33.7611 30.2928 35.7956 29.3401 37.7631 28.4189C38.5678 28.0421 39.3999 27.6524 40.136 27.1703C42.2551 25.7825 43.2976 23.6993 43.2345 20.9787C43.2065 19.7752 42.9593 18.6998 42.7521 17.9979C41.789 18.7699 40.876 19.1607 39.7778 19.6308C38.8294 20.0367 37.7545 20.4968 36.3524 21.3318C35.294 21.9622 34.7868 22.6517 34.4973 23.1156C34.3148 23.4078 33.93 23.4971 33.6376 23.3145C33.3452 23.1321 33.2561 22.7472 33.4386 22.4548C34.0079 21.5426 34.7309 20.845 35.7139 20.2596C37.1872 19.3822 38.3026 18.9048 39.2867 18.4835C40.5824 17.9289 41.5186 17.5282 42.5988 16.4639C42.7458 16.319 42.9547 16.2564 43.1574 16.2962C43.3599 16.336 43.5295 16.4735 43.6106 16.6632C43.6436 16.7403 44.4183 18.5786 44.4811 20.9083C44.5661 24.0636 43.3 26.5901 40.8197 28.2144C40.0095 28.745 39.1365 29.1538 38.2922 29.5491C36.2567 30.5022 35.0091 31.1565 35.0091 32.5375C35.0091 32.8822 34.7297 33.1615 34.3851 33.1615Z" fill="#000033"/>
<path d="M34.3851 33.1615C34.0405 33.1615 33.7611 32.8822 33.7611 32.5375C33.7611 30.2928 35.7956 29.3401 37.7631 28.4189C38.5678 28.0421 39.3999 27.6524 40.136 27.1703C42.2551 25.7825 43.2976 23.6993 43.2345 20.9787C43.2065 19.7752 42.9593 18.6998 42.7521 17.9979C41.789 18.7699 40.876 19.1607 39.7778 19.6308C38.8294 20.0367 37.7545 20.4968 36.3524 21.3318C35.294 21.9622 34.7868 22.6517 34.4973 23.1156C34.3148 23.4078 33.93 23.4971 33.6376 23.3145C33.3452 23.1321 33.2561 22.7472 33.4386 22.4548C34.0079 21.5426 34.7309 20.845 35.7139 20.2596C37.1872 19.3822 38.3026 18.9048 39.2867 18.4835C40.5824 17.9289 41.5186 17.5282 42.5988 16.4639C42.7458 16.319 42.9547 16.2564 43.1574 16.2962C43.3599 16.336 43.5295 16.4735 43.6106 16.6632C43.6436 16.7403 44.4183 18.5786 44.4811 20.9083C44.5661 24.0636 43.3 26.5901 40.8197 28.2144C40.0095 28.745 39.1365 29.1538 38.2922 29.5491C36.2567 30.5022 35.0091 31.1565 35.0091 32.5375C35.0091 32.8822 34.7297 33.1615 34.3851 33.1615" stroke="#000033" stroke-width="0.5"/>
<path fill-rule="evenodd" clip-rule="evenodd" d="M32.2334 48.6822C31.8888 48.6822 31.6094 48.4029 31.6094 48.0582V32.2173C31.6094 31.8726 31.8888 31.5933 32.2334 31.5933C32.5781 31.5933 32.8574 31.8726 32.8574 32.2173V48.0582C32.8574 48.4029 32.5781 48.6822 32.2334 48.6822Z" fill="#000033"/>
<path d="M32.2334 48.6822C31.8888 48.6822 31.6094 48.4029 31.6094 48.0582V32.2173C31.6094 31.8726 31.8888 31.5933 32.2334 31.5933C32.5781 31.5933 32.8574 31.8726 32.8574 32.2173V48.0582C32.8574 48.4029 32.5781 48.6822 32.2334 48.6822" stroke="#000033" stroke-width="0.5"/>
<path fill-rule="evenodd" clip-rule="evenodd" d="M32.2334 48.6823C31.7056 48.6823 31.2761 49.1117 31.2761 49.6396C31.2761 50.1675 31.7056 50.5969 32.2334 50.5969C32.7613 50.5969 33.1907 50.1675 33.1907 49.6396C33.1907 49.1117 32.7613 48.6823 32.2334 48.6823ZM32.2334 51.8449C31.0175 51.8449 30.0281 50.8556 30.0281 49.6396C30.0281 48.4237 31.0175 47.4343 32.2334 47.4343C33.4494 47.4343 34.4387 48.4237 34.4387 49.6396C34.4387 50.8556 33.4494 51.8449 32.2334 51.8449Z" fill="#000033"/>
<path d="M32.2334 48.4323C31.5676 48.4323 31.0261 48.9736 31.0261 49.6396H31.5261C31.5261 49.2498 31.8437 48.9323 32.2334 48.9323V48.4323ZM31.0261 49.6396C31.0261 50.3056 31.5676 50.8469 32.2334 50.8469V50.3469C31.8437 50.3469 31.5261 50.0294 31.5261 49.6396H31.0261ZM32.2334 50.8469C32.8993 50.8469 33.4407 50.3056 33.4407 49.6396H32.9407C32.9407 50.0294 32.6232 50.3469 32.2334 50.3469V50.8469ZM33.4407 49.6396C33.4407 48.9736 32.8993 48.4323 32.2334 48.4323V48.9323C32.6232 48.9323 32.9407 49.2498 32.9407 49.6396H33.4407ZM32.2334 51.5949C31.1555 51.5949 30.2781 50.7175 30.2781 49.6396H29.7781C29.7781 50.9937 30.8794 52.0949 32.2334 52.0949V51.5949ZM30.2781 49.6396C30.2781 48.5617 31.1555 47.6843 32.2334 47.6843V47.1843C30.8794 47.1843 29.7781 48.2856 29.7781 49.6396H30.2781ZM32.2334 47.6843C33.3113 47.6843 34.1887 48.5617 34.1887 49.6396H34.6887C34.6887 48.2856 33.5875 47.1843 32.2334 47.1843V47.6843ZM34.1887 49.6396C34.1887 50.7175 33.3113 51.5949 32.2334 51.5949V52.0949C33.5875 52.0949 34.6887 50.9937 34.6887 49.6396H34.1887Z" fill="#000033"/>
<path fill-rule="evenodd" clip-rule="evenodd" d="M38.2137 44.582C37.6858 44.582 37.2564 45.0114 37.2564 45.5393C37.2564 46.0672 37.6858 46.4966 38.2137 46.4966C38.7415 46.4966 39.171 46.0672 39.171 45.5393C39.171 45.0114 38.7415 44.582 38.2137 44.582ZM38.2137 47.7446C36.9977 47.7446 36.0084 46.7553 36.0084 45.5393C36.0084 44.3233 36.9977 43.334 38.2137 43.334C39.4296 43.334 40.419 44.3233 40.419 45.5393C40.419 46.7553 39.4296 47.7446 38.2137 47.7446Z" fill="#000033"/>
<path d="M38.2137 44.332C37.5478 44.332 37.0064 44.8733 37.0064 45.5393H37.5064C37.5064 45.1495 37.8239 44.832 38.2137 44.832V44.332ZM37.0064 45.5393C37.0064 46.2053 37.5478 46.7466 38.2137 46.7466V46.2466C37.8239 46.2466 37.5064 45.9291 37.5064 45.5393H37.0064ZM38.2137 46.7466C38.8795 46.7466 39.421 46.2053 39.421 45.5393H38.921C38.921 45.9291 38.6034 46.2466 38.2137 46.2466V46.7466ZM39.421 45.5393C39.421 44.8733 38.8795 44.332 38.2137 44.332V44.832C38.6034 44.832 38.921 45.1495 38.921 45.5393H39.421ZM38.2137 47.4946C37.1358 47.4946 36.2584 46.6172 36.2584 45.5393H35.7584C35.7584 46.8933 36.8596 47.9946 38.2137 47.9946V47.4946ZM36.2584 45.5393C36.2584 44.4614 37.1358 43.584 38.2137 43.584V43.084C36.8596 43.084 35.7584 44.1852 35.7584 45.5393H36.2584ZM38.2137 43.584C39.2916 43.584 40.169 44.4614 40.169 45.5393H40.669C40.669 44.1852 39.5677 43.084 38.2137 43.084V43.584ZM40.169 45.5393C40.169 46.6172 39.2916 47.4946 38.2137 47.4946V47.9946C39.5677 47.9946 40.669 46.8933 40.669 45.5393H40.169Z" fill="#000033"/>
<path fill-rule="evenodd" clip-rule="evenodd" d="M26.2596 42.1521C25.7318 42.1521 25.3023 42.5814 25.3023 43.1094C25.3023 43.6373 25.7318 44.0667 26.2596 44.0667C26.7874 44.0667 27.2169 43.6373 27.2169 43.1094C27.2169 42.5814 26.7874 42.1521 26.2596 42.1521ZM26.2596 45.3147C25.0437 45.3147 24.0543 44.3253 24.0543 43.1094C24.0543 41.8934 25.0437 40.9041 26.2596 40.9041C27.4756 40.9041 28.4649 41.8934 28.4649 43.1094C28.4649 44.3253 27.4756 45.3147 26.2596 45.3147Z" fill="#000033"/>
<path d="M26.2596 41.9021C25.5937 41.9021 25.0523 42.4434 25.0523 43.1094H25.5523C25.5523 42.7195 25.8699 42.4021 26.2596 42.4021V41.9021ZM25.0523 43.1094C25.0523 43.7753 25.5937 44.3167 26.2596 44.3167V43.8167C25.8699 43.8167 25.5523 43.4992 25.5523 43.1094H25.0523ZM26.2596 44.3167C26.9255 44.3167 27.4669 43.7753 27.4669 43.1094H26.9669C26.9669 43.4992 26.6494 43.8167 26.2596 43.8167V44.3167ZM27.4669 43.1094C27.4669 42.4434 26.9255 41.9021 26.2596 41.9021V42.4021C26.6494 42.4021 26.9669 42.7195 26.9669 43.1094H27.4669ZM26.2596 45.0647C25.1817 45.0647 24.3043 44.1872 24.3043 43.1094H23.8043C23.8043 44.4634 24.9056 45.5647 26.2596 45.5647V45.0647ZM24.3043 43.1094C24.3043 42.0315 25.1817 41.1541 26.2596 41.1541V40.6541C24.9056 40.6541 23.8043 41.7553 23.8043 43.1094H24.3043ZM26.2596 41.1541C27.3375 41.1541 28.2149 42.0315 28.2149 43.1094H28.7149C28.7149 41.7553 27.6137 40.6541 26.2596 40.6541V41.1541ZM28.2149 43.1094C28.2149 44.1872 27.3375 45.0647 26.2596 45.0647V45.5647C27.6137 45.5647 28.7149 44.4634 28.7149 43.1094H28.2149Z" fill="#000033"/>
<path fill-rule="evenodd" clip-rule="evenodd" d="M36.9833 44.9474C36.8236 44.9474 36.6639 44.8865 36.5421 44.7647L33.9438 42.1665C33.8269 42.0494 33.761 41.8908 33.761 41.7252V32.5376C33.761 32.1929 34.0404 31.9136 34.385 31.9136C34.7297 31.9136 35.009 32.1929 35.009 32.5376V41.4668L37.4245 43.8821C37.6682 44.1259 37.6682 44.521 37.4245 44.7647C37.3027 44.8865 37.143 44.9474 36.9833 44.9474Z" fill="#000033"/>
<path d="M36.9833 44.9474C36.8236 44.9474 36.6639 44.8865 36.5421 44.7647L33.9438 42.1665C33.8269 42.0494 33.761 41.8908 33.761 41.7252V32.5376C33.761 32.1929 34.0404 31.9136 34.385 31.9136C34.7297 31.9136 35.009 32.1929 35.009 32.5376V41.4668L37.4245 43.8821C37.6682 44.1259 37.6682 44.521 37.4245 44.7647C37.3027 44.8865 37.143 44.9474 36.9833 44.9474" stroke="#000033" stroke-width="0.5"/>
<path fill-rule="evenodd" clip-rule="evenodd" d="M27.4003 42.4514C27.2407 42.4514 27.0809 42.3905 26.9591 42.2687C26.7154 42.025 26.7154 41.6299 26.9591 41.3861L29.3746 38.9708V32.5376C29.3746 32.1929 29.6539 31.9136 29.9986 31.9136C30.3432 31.9136 30.6226 32.1929 30.6226 32.5376V39.2292C30.6226 39.3948 30.5568 39.5534 30.4398 39.6705L27.8416 42.2687C27.7198 42.3905 27.56 42.4514 27.4003 42.4514Z" fill="#000033"/>
<path d="M27.4003 42.4514C27.2407 42.4514 27.0809 42.3905 26.9591 42.2687C26.7154 42.025 26.7154 41.6299 26.9591 41.3861L29.3746 38.9708V32.5376C29.3746 32.1929 29.6539 31.9136 29.9986 31.9136C30.3432 31.9136 30.6226 32.1929 30.6226 32.5376V39.2292C30.6226 39.3948 30.5568 39.5534 30.4398 39.6705L27.8416 42.2687C27.7198 42.3905 27.56 42.4514 27.4003 42.4514" stroke="#000033" stroke-width="0.5"/>
</svg>
