<svg width="304" height="270" viewBox="0 0 304 270" fill="none" xmlns="http://www.w3.org/2000/svg">
<path fill-rule="evenodd" clip-rule="evenodd" d="M227.997 145.156C227.308 145.156 226.749 144.598 226.749 143.908C226.749 140.166 223.148 138.484 217.218 136.159C214.401 135.054 211.489 133.912 208.966 132.26C202.222 127.843 198.779 120.968 199.011 112.377C199.183 105.994 201.301 100.968 201.391 100.758C201.553 100.378 201.892 100.103 202.297 100.024C202.702 99.9438 203.121 100.069 203.415 100.359C206.482 103.381 209.119 104.51 212.769 106.072C215.49 107.237 218.574 108.557 222.64 110.978C228.358 114.383 232.08 121.107 233.406 130.423C234.388 137.327 233.735 143.166 233.707 143.411C233.634 144.041 233.101 144.516 232.467 144.516H232.465C231.831 144.515 231.298 144.038 231.227 143.408C230.669 138.461 229.227 134.041 226.939 130.27C225.116 127.265 222.752 124.657 219.913 122.518C215.078 118.877 210.542 117.865 210.497 117.855C209.823 117.709 209.395 117.045 209.541 116.371C209.687 115.698 210.352 115.27 211.025 115.416C211.232 115.46 216.147 116.557 221.415 120.525C224.742 123.03 228.64 127.053 231.203 133.211C230.554 126.165 228.292 117.249 221.363 113.123C217.439 110.786 214.436 109.501 211.787 108.367C208.561 106.986 205.918 105.855 203.079 103.437C202.466 105.354 201.597 108.706 201.504 112.518C201.316 120.272 204.286 126.212 210.333 130.172C212.64 131.683 215.43 132.777 218.129 133.835C223.594 135.978 229.245 138.194 229.245 143.908C229.245 144.598 228.686 145.156 227.997 145.156Z" fill="#00E599"/>
<path fill-rule="evenodd" clip-rule="evenodd" d="M236.77 145.156C236.081 145.156 235.522 144.598 235.522 143.908C235.522 139.419 239.591 137.514 243.526 135.671C245.136 134.918 246.8 134.138 248.272 133.174C252.51 130.399 254.595 126.232 254.469 120.791C254.413 118.384 253.919 116.233 253.504 114.829C251.578 116.373 249.752 117.155 247.556 118.095C245.659 118.907 243.509 119.827 240.705 121.497C238.588 122.758 237.574 124.137 236.995 125.065C236.63 125.649 235.86 125.828 235.275 125.462C234.69 125.098 234.512 124.328 234.877 123.743C236.016 121.919 237.462 120.524 239.428 119.353C242.374 117.598 244.605 116.643 246.573 115.8C249.165 114.691 251.037 113.89 253.198 111.761C253.492 111.472 253.909 111.346 254.315 111.426C254.72 111.506 255.059 111.78 255.221 112.16C255.287 112.314 256.837 115.991 256.962 120.65C257.132 126.961 254.6 132.014 249.639 135.262C248.019 136.324 246.273 137.141 244.584 137.932C240.513 139.838 238.018 141.147 238.018 143.908C238.018 144.598 237.459 145.156 236.77 145.156Z" fill="#00E599"/>
<path fill-rule="evenodd" clip-rule="evenodd" d="M232.467 188.198C231.778 188.198 231.219 187.443 231.219 186.512V143.706C231.219 142.775 231.778 142.02 232.467 142.02C233.156 142.02 233.715 142.775 233.715 143.706V186.512C233.715 187.443 233.156 188.198 232.467 188.198Z" fill="#00E599"/>
<path fill-rule="evenodd" clip-rule="evenodd" d="M235.522 192.284V143.908C235.522 143.219 236.081 142.66 236.77 142.66C237.46 142.66 238.018 143.219 238.018 143.908V192.267L235.522 192.284Z" fill="#00E599"/>
<path fill-rule="evenodd" clip-rule="evenodd" d="M226.749 187.275V143.908C226.749 143.219 227.308 142.66 227.997 142.66C228.686 142.66 229.245 143.219 229.245 143.908V187.292L226.749 187.275Z" fill="#00E599"/>
<path fill-rule="evenodd" clip-rule="evenodd" d="M147.997 45.1564C147.308 45.1564 146.749 44.5978 146.749 43.9084C146.749 40.1662 143.148 38.4841 137.218 36.1588C134.401 35.0542 131.489 33.9122 128.966 32.2602C122.222 27.8434 118.779 20.968 119.011 12.3766C119.183 5.9938 121.301 0.968186 121.391 0.757524C121.553 0.377966 121.892 0.103239 122.297 0.0235336C122.702 -0.056172 123.121 0.0692936 123.415 0.35883C126.482 3.38099 129.119 4.50968 132.769 6.07201C135.49 7.23664 138.574 8.55686 142.64 10.9783C148.358 14.3832 152.08 21.1071 153.406 30.423C154.388 37.3274 153.735 43.1661 153.707 43.4112C153.634 44.041 153.101 44.5161 152.467 44.5161H152.465C151.831 44.5152 151.298 44.0383 151.227 43.4078C150.669 38.4613 149.227 34.0409 146.939 30.2701C145.116 27.2649 142.752 24.6569 139.913 22.5185C135.078 18.8773 130.542 17.8649 130.497 17.8553C129.823 17.7094 129.395 17.0451 129.541 16.3713C129.687 15.6979 130.352 15.2696 131.025 15.4159C131.232 15.4605 136.147 16.5574 141.415 20.5247C144.742 23.0302 148.64 27.0526 151.203 33.2108C150.554 26.165 148.292 17.2491 141.363 13.1229C137.439 10.7861 134.436 9.50084 131.787 8.36666C128.561 6.98604 125.918 5.85469 123.079 3.43723C122.466 5.35432 121.597 8.70645 121.504 12.5182C121.316 20.2724 124.286 26.2119 130.333 30.1721C132.64 31.6826 135.43 32.7769 138.129 33.835C143.594 35.9779 149.245 38.1939 149.245 43.9084C149.245 44.5978 148.686 45.1564 147.997 45.1564Z" fill="#00E599"/>
<path fill-rule="evenodd" clip-rule="evenodd" d="M156.77 45.1564C156.081 45.1564 155.522 44.5978 155.522 43.9084C155.522 39.4191 159.591 37.5137 163.526 35.6713C165.136 34.9177 166.8 34.1382 168.272 33.1741C172.51 30.3986 174.595 26.2321 174.469 20.7908C174.413 18.384 173.919 16.2331 173.504 14.8294C171.578 16.3734 169.752 17.155 167.556 18.0951C165.659 18.907 163.509 19.8272 160.705 21.4972C158.588 22.7578 157.574 24.1369 156.995 25.0646C156.63 25.6492 155.86 25.8277 155.275 25.4625C154.69 25.0977 154.512 24.3278 154.877 23.7431C156.016 21.9187 157.462 20.5236 159.428 19.3528C162.374 17.5979 164.605 16.6431 166.573 15.8005C169.165 14.6912 171.037 13.8899 173.198 11.7613C173.492 11.4716 173.909 11.3463 174.315 11.4258C174.72 11.5055 175.059 11.7804 175.221 12.1598C175.287 12.3141 176.837 15.9907 176.962 20.6502C177.132 26.9607 174.6 32.0137 169.639 35.2623C168.019 36.3236 166.273 37.1411 164.584 37.9317C160.513 39.8379 158.018 41.1465 158.018 43.9084C158.018 44.5978 157.459 45.1564 156.77 45.1564Z" fill="#00E599"/>
<path fill-rule="evenodd" clip-rule="evenodd" d="M151.219 236.512V43.7064C151.219 42.775 151.778 42.0203 152.467 42.0203C153.156 42.0203 153.715 42.775 153.715 43.7064V236.512C153.715 237.443 153.156 238.198 152.467 238.198C151.778 238.198 151.219 237.443 151.219 236.512Z" fill="#00E599"/>
<path fill-rule="evenodd" clip-rule="evenodd" d="M155.522 232.284V43.9084C155.522 43.219 156.081 42.6604 156.77 42.6604C157.46 42.6604 158.018 43.219 158.018 43.9084V232.267L155.522 232.284Z" fill="#00E599"/>
<path fill-rule="evenodd" clip-rule="evenodd" d="M146.749 237.275V43.9084C146.749 43.219 147.308 42.6604 147.997 42.6604C148.686 42.6604 149.245 43.219 149.245 43.9084V237.292L146.749 237.275Z" fill="#00E599"/>
<path fill-rule="evenodd" clip-rule="evenodd" d="M67.9972 145.156C67.3079 145.156 66.7492 144.598 66.7492 143.908C66.7492 140.166 63.1483 138.484 57.2178 136.159C54.401 135.054 51.4886 133.912 48.966 132.26C42.222 127.843 38.7795 120.968 39.0109 112.377C39.1827 105.994 41.3009 100.968 41.391 100.758C41.5532 100.378 41.8925 100.103 42.2973 100.024C42.7024 99.9438 43.1205 100.069 43.4146 100.359C46.482 103.381 49.1189 104.51 52.7689 106.072C55.4897 107.237 58.5736 108.557 62.6401 110.978C68.3576 114.383 72.0805 121.107 73.4058 130.423C74.3881 137.327 73.735 143.166 73.7067 143.411C73.634 144.041 73.1007 144.516 72.4668 144.516H72.4653C71.8307 144.515 71.2977 144.038 71.2268 143.408C70.6692 138.461 69.2267 134.041 66.9394 130.27C65.1164 127.265 62.7524 124.657 59.913 122.518C55.078 118.877 50.5423 117.865 50.497 117.855C49.8235 117.709 49.3955 117.045 49.5414 116.371C49.6873 115.698 50.3521 115.27 51.0254 115.416C51.232 115.46 56.1467 116.557 61.4145 120.525C64.7415 123.03 68.6401 127.053 71.2032 133.211C70.5541 126.165 68.2919 117.249 61.363 113.123C57.4389 110.786 54.4361 109.501 51.7866 108.367C48.561 106.986 45.9179 105.855 43.0791 103.437C42.4661 105.354 41.5966 108.706 41.5041 112.518C41.3158 120.272 44.2865 126.212 50.3335 130.172C52.6401 131.683 55.4305 132.777 58.1288 133.835C63.5941 135.978 69.2452 138.194 69.2452 143.908C69.2452 144.598 68.6864 145.156 67.9972 145.156Z" fill="#00E599"/>
<path fill-rule="evenodd" clip-rule="evenodd" d="M76.7702 145.156C76.0809 145.156 75.5222 144.598 75.5222 143.908C75.5222 139.419 79.5912 137.514 83.5262 135.671C85.1356 134.918 86.7998 134.138 88.2721 133.174C92.5103 130.399 94.5953 126.232 94.469 120.791C94.4131 118.384 93.9187 116.233 93.5042 114.829C91.5779 116.373 89.752 117.155 87.5556 118.095C85.6588 118.907 83.509 119.827 80.7049 121.497C78.5879 122.758 77.5736 124.137 76.9946 125.065C76.6296 125.649 75.86 125.828 75.2752 125.462C74.6903 125.098 74.5123 124.328 74.8772 123.743C76.0157 121.919 77.4617 120.524 79.4277 119.353C82.3744 117.598 84.6051 116.643 86.5735 115.8C89.1648 114.691 91.0371 113.89 93.1977 111.761C93.4915 111.472 93.9094 111.346 94.3149 111.426C94.7197 111.506 95.059 111.78 95.2211 112.16C95.2872 112.314 96.8367 115.991 96.9621 120.65C97.1322 126.961 94.5999 132.014 89.6394 135.262C88.019 136.324 86.2729 137.141 84.5845 137.932C80.5133 139.838 78.0182 141.147 78.0182 143.908C78.0182 144.598 77.4594 145.156 76.7702 145.156Z" fill="#00E599"/>
<path fill-rule="evenodd" clip-rule="evenodd" d="M72.4669 188.198C71.7776 188.198 71.2189 187.443 71.2189 186.512V143.706C71.2189 142.775 71.7776 142.02 72.4669 142.02C73.1561 142.02 73.7149 142.775 73.7149 143.706V186.512C73.7149 187.443 73.1561 188.198 72.4669 188.198Z" fill="#00E599"/>
<path fill-rule="evenodd" clip-rule="evenodd" d="M75.5222 192.284V143.908C75.5222 143.219 76.0809 142.66 76.7702 142.66C77.4596 142.66 78.0182 143.219 78.0182 143.908V192.267L75.5222 192.284Z" fill="#00E599"/>
<path fill-rule="evenodd" clip-rule="evenodd" d="M155.522 137.908C155.522 133.419 159.591 131.514 163.526 129.671C165.136 128.918 166.8 128.138 168.272 127.174C172.51 124.399 180.595 120.232 180.469 114.791C180.413 112.384 179.919 110.233 179.504 108.829C177.578 110.373 175.752 111.155 173.556 112.095C171.659 112.907 171.009 113.327 168.205 114.997C166.088 116.258 165.074 117.637 164.495 118.565C164.13 119.149 163.36 119.328 162.775 118.962C162.19 118.598 162.012 117.828 162.377 117.243C163.516 115.419 164.962 114.024 166.928 112.853C169.874 111.098 170.605 110.643 172.573 109.8C175.165 108.691 177.037 107.89 179.198 105.761C179.492 105.472 179.909 105.346 180.315 105.426C180.72 105.506 181.059 105.78 181.221 106.16C181.287 106.314 182.837 109.991 182.962 114.65C183.132 120.961 174.6 126.014 169.639 129.262C168.019 130.324 166.273 131.141 164.584 131.932C160.513 133.838 158.018 135.147 158.018 137.908C158.018 138.598 157.459 139.156 156.77 139.156C156.081 139.156 155.522 138.598 155.522 137.908Z" fill="#00E599"/>
<path fill-rule="evenodd" clip-rule="evenodd" d="M148.965 88.9084C148.965 84.4191 144.896 82.5137 140.961 80.6713C139.351 79.9177 137.687 79.1382 136.215 78.1741C131.977 75.3986 123.892 71.2321 124.018 65.7908C124.074 63.384 124.568 61.2331 124.983 59.8294C126.909 61.3734 128.735 62.155 130.931 63.0951C132.828 63.907 133.478 64.3272 136.282 65.9972C138.399 67.2578 139.413 68.6369 139.992 69.5646C140.357 70.1492 141.127 70.3277 141.712 69.9625C142.296 69.5977 142.475 68.8278 142.11 68.2431C140.971 66.4187 139.525 65.0236 137.559 63.8528C134.612 62.0979 133.882 61.6431 131.913 60.8005C129.322 59.6912 127.45 58.8899 125.289 56.7613C124.995 56.4716 124.577 56.3463 124.172 56.4258C123.767 56.5055 123.428 56.7804 123.266 57.1598C123.2 57.3141 121.65 60.9907 121.525 65.6502C121.355 71.9607 129.887 77.0137 134.847 80.2623C136.468 81.3236 138.214 82.1411 139.902 82.9317C143.973 84.8379 146.469 86.1465 146.469 88.9084C146.469 89.5978 147.027 90.1564 147.717 90.1564C148.406 90.1564 148.965 89.5978 148.965 88.9084Z" fill="#00E599"/>
<path fill-rule="evenodd" clip-rule="evenodd" d="M66.7493 187.275V143.908C66.7493 143.219 67.3079 142.66 67.9973 142.66C68.6865 142.66 69.2453 143.219 69.2453 143.908V187.292L66.7493 187.275Z" fill="#00E599"/>
<g filter="url(#filter0_dd)">
<path fill-rule="evenodd" clip-rule="evenodd" d="M152.727 177.5L182.801 194.864V229.59L152.727 246.954L122.653 229.59V194.864L152.727 177.5Z" fill="#F0F5F6"/>
</g>
<path d="M137.481 200.973V222.715L151.743 227.778V205.847L167.126 200.242L153.164 195.287L137.481 200.973Z" fill="#00E599"/>
<path d="M152.659 206.876V218.511L166.652 223.509V201.69L152.659 206.876Z" fill="#00AF92"/>
<g filter="url(#filter1_dd)">
<path fill-rule="evenodd" clip-rule="evenodd" d="M70.727 178.5L100.801 195.864V230.59L70.727 247.954L40.6525 230.59V195.864L70.727 178.5Z" fill="#F0F5F6"/>
</g>
<path d="M55.481 201.973V223.715L69.7434 228.778V206.847L85.126 201.242L71.1642 196.287L55.481 201.973Z" fill="#00E599"/>
<path d="M70.6592 207.876V219.511L84.6517 224.509V202.69L70.6592 207.876Z" fill="#00AF92"/>
<g filter="url(#filter2_dd)">
<path fill-rule="evenodd" clip-rule="evenodd" d="M232.727 177.5L262.801 194.864V229.59L232.727 246.954L202.653 229.59V194.864L232.727 177.5Z" fill="#F0F5F6"/>
</g>
<path d="M217.481 200.973V222.715L231.743 227.778V205.847L247.126 200.242L233.164 195.287L217.481 200.973Z" fill="#00E599"/>
<path d="M232.659 206.876V218.511L246.652 223.509V201.69L232.659 206.876Z" fill="#00AF92"/>
<path d="M1.5 160L62.5 159.5" stroke="#00E599" stroke-width="3" stroke-linecap="round"/>
<path d="M81.5 160L142.5 159.5" stroke="#00E599" stroke-width="3" stroke-linecap="round"/>
<path d="M162 160L223 159.5" stroke="#00E599" stroke-width="3" stroke-linecap="round"/>
<path d="M241.5 160L302.5 159.5" stroke="#00E599" stroke-width="3" stroke-linecap="round"/>
<defs>
<filter id="filter0_dd" x="102.653" y="177.5" width="81.1489" height="91.454" filterUnits="userSpaceOnUse" color-interpolation-filters="sRGB">
<feFlood flood-opacity="0" result="BackgroundImageFix"/>
<feColorMatrix in="SourceAlpha" type="matrix" values="0 0 0 0 0 0 0 0 0 0 0 0 0 0 0 0 0 0 127 0"/>
<feOffset dx="-10" dy="12"/>
<feGaussianBlur stdDeviation="5"/>
<feColorMatrix type="matrix" values="0 0 0 0 0.316369 0 0 0 0 0.366988 0 0 0 0 0.353496 0 0 0 0.25741 0"/>
<feBlend mode="normal" in2="BackgroundImageFix" result="effect1_dropShadow"/>
<feColorMatrix in="SourceAlpha" type="matrix" values="0 0 0 0 0 0 0 0 0 0 0 0 0 0 0 0 0 0 127 0"/>
<feOffset dx="-3" dy="6"/>
<feGaussianBlur stdDeviation="2"/>
<feColorMatrix type="matrix" values="0 0 0 0 0 0 0 0 0 0 0 0 0 0 0 0 0 0 0.144615 0"/>
<feBlend mode="normal" in2="effect1_dropShadow" result="effect2_dropShadow"/>
<feBlend mode="normal" in="SourceGraphic" in2="effect2_dropShadow" result="shape"/>
</filter>
<filter id="filter1_dd" x="20.6525" y="178.5" width="81.1489" height="91.454" filterUnits="userSpaceOnUse" color-interpolation-filters="sRGB">
<feFlood flood-opacity="0" result="BackgroundImageFix"/>
<feColorMatrix in="SourceAlpha" type="matrix" values="0 0 0 0 0 0 0 0 0 0 0 0 0 0 0 0 0 0 127 0"/>
<feOffset dx="-10" dy="12"/>
<feGaussianBlur stdDeviation="5"/>
<feColorMatrix type="matrix" values="0 0 0 0 0.316369 0 0 0 0 0.366988 0 0 0 0 0.353496 0 0 0 0.25741 0"/>
<feBlend mode="normal" in2="BackgroundImageFix" result="effect1_dropShadow"/>
<feColorMatrix in="SourceAlpha" type="matrix" values="0 0 0 0 0 0 0 0 0 0 0 0 0 0 0 0 0 0 127 0"/>
<feOffset dx="-3" dy="6"/>
<feGaussianBlur stdDeviation="2"/>
<feColorMatrix type="matrix" values="0 0 0 0 0 0 0 0 0 0 0 0 0 0 0 0 0 0 0.144615 0"/>
<feBlend mode="normal" in2="effect1_dropShadow" result="effect2_dropShadow"/>
<feBlend mode="normal" in="SourceGraphic" in2="effect2_dropShadow" result="shape"/>
</filter>
<filter id="filter2_dd" x="182.653" y="177.5" width="81.1489" height="91.454" filterUnits="userSpaceOnUse" color-interpolation-filters="sRGB">
<feFlood flood-opacity="0" result="BackgroundImageFix"/>
<feColorMatrix in="SourceAlpha" type="matrix" values="0 0 0 0 0 0 0 0 0 0 0 0 0 0 0 0 0 0 127 0"/>
<feOffset dx="-10" dy="12"/>
<feGaussianBlur stdDeviation="5"/>
<feColorMatrix type="matrix" values="0 0 0 0 0.316369 0 0 0 0 0.366988 0 0 0 0 0.353496 0 0 0 0.25741 0"/>
<feBlend mode="normal" in2="BackgroundImageFix" result="effect1_dropShadow"/>
<feColorMatrix in="SourceAlpha" type="matrix" values="0 0 0 0 0 0 0 0 0 0 0 0 0 0 0 0 0 0 127 0"/>
<feOffset dx="-3" dy="6"/>
<feGaussianBlur stdDeviation="2"/>
<feColorMatrix type="matrix" values="0 0 0 0 0 0 0 0 0 0 0 0 0 0 0 0 0 0 0.144615 0"/>
<feBlend mode="normal" in2="effect1_dropShadow" result="effect2_dropShadow"/>
<feBlend mode="normal" in="SourceGraphic" in2="effect2_dropShadow" result="shape"/>
</filter>
</defs>
</svg>
