<svg width="402" height="383" viewBox="0 0 402 383" fill="none" xmlns="http://www.w3.org/2000/svg">
<g filter="url(#filter0_d)">
<path fill-rule="evenodd" clip-rule="evenodd" d="M358.5 298.289V262.579C358.432 262.419 358.358 262.262 358.301 262.096L358.298 232.851L358.296 216.058L358.295 215.418L311.309 215.424C307.428 213.683 305.573 208.713 308.061 204.702C314.445 194.41 315.901 181.685 304.069 174.687C294.474 169.013 281.304 172.657 275.984 182.497C271.61 190.587 275.194 197.713 279.303 204.951C281.573 208.948 279.693 213.729 275.902 215.427L229.5 215.432L229.501 216.071L229.502 234.258L229.505 261.618C230.663 266.323 236.188 268.854 240.575 266.107C250.815 259.694 263.475 258.234 270.432 270.132C276.074 279.779 271.899 292.792 262.108 298.136C254.059 302.529 247.602 298.989 240.316 295.015C235.504 292.389 230.565 294.393 229.509 299.527L229.513 344.898L262.082 344.894V345H332.069V344.887L358.309 344.885L358.304 298.753C358.361 298.594 358.433 298.443 358.5 298.289Z" fill="#F3F5F5"/>
</g>
<path fill-rule="evenodd" clip-rule="evenodd" d="M317.318 256.5H293.055C291.378 256.5 290 257.885 290 259.571V304.429C290 306.115 291.378 307.5 293.055 307.5H325.945C327.622 307.5 329 306.115 329 304.429V268.181C329 266.495 328.401 265.05 327.203 263.906L321.631 258.306C320.433 257.102 318.995 256.5 317.318 256.5Z" fill="#F6F7F7"/>
<path fill-rule="evenodd" clip-rule="evenodd" d="M333.58 282.893C334.227 282.04 334.109 280.883 333.345 280.213L331.934 278.935C331.169 278.265 329.993 278.387 329.347 279.178L314.706 297.202L314 302.5L318.939 300.856C323.819 294.889 328.7 288.86 333.58 282.893Z" fill="#00E599"/>
<path fill-rule="evenodd" clip-rule="evenodd" d="M325.93 308.5H293.07C290.826 308.5 289 306.666 289 304.411V259.589C289 257.334 290.826 255.5 293.07 255.5H317.31C319.258 255.5 320.95 256.207 322.34 257.602L327.906 263.198C329.289 264.518 330 266.203 330 268.193V275.652C330 276.218 329.544 276.674 328.982 276.674C328.42 276.674 327.965 276.218 327.965 275.652V268.193C327.965 266.788 327.467 265.6 326.486 264.663L320.9 259.048C319.893 258.037 318.719 257.544 317.31 257.544H293.07C291.948 257.544 291.035 258.462 291.035 259.589V304.411C291.035 305.538 291.948 306.456 293.07 306.456H325.93C327.052 306.456 327.965 305.538 327.965 304.411V294.002C327.965 293.436 328.42 292.98 328.982 292.98C329.544 292.98 330 293.436 330 294.002V304.411C330 306.666 328.174 308.5 325.93 308.5Z" fill="#000033"/>
<path fill-rule="evenodd" clip-rule="evenodd" d="M324.97 269.5H319.637C317.632 269.5 316 267.875 316 265.878V256.543C316 255.965 316.461 255.5 317.03 255.5C317.599 255.5 318.061 255.965 318.061 256.543V265.878C318.061 266.724 318.767 267.414 319.637 267.414H324.97C325.539 267.414 326 267.879 326 268.457C326 269.035 325.539 269.5 324.97 269.5Z" fill="#000033"/>
<path fill-rule="evenodd" clip-rule="evenodd" d="M314 303.5C313.768 303.5 313.54 303.418 313.357 303.259C313.094 303.031 312.963 302.68 313.009 302.328L313.715 297.046C313.742 296.852 313.82 296.672 313.941 296.521L328.586 278.547C329.602 277.309 331.397 277.146 332.583 278.181L334.008 279.466C335.171 280.484 335.336 282.286 334.373 283.553L332.579 285.712C332.22 286.147 331.588 286.193 331.169 285.823C330.751 285.453 330.702 284.8 331.062 284.369L332.827 282.246C333.106 281.876 333.067 281.348 332.703 281.03L331.281 279.748C330.957 279.463 330.407 279.524 330.114 279.88L315.657 297.624L315.208 300.983L318.362 299.935L329.235 286.683C329.592 286.248 330.222 286.195 330.644 286.562C331.066 286.932 331.117 287.582 330.761 288.018L319.704 301.496C319.583 301.642 319.425 301.753 319.247 301.812L314.306 303.452C314.206 303.485 314.102 303.5 314 303.5Z" fill="#000033"/>
<path fill-rule="evenodd" clip-rule="evenodd" d="M332.038 286.5C331.817 286.5 331.597 286.417 331.416 286.247L327.34 282.395C326.935 282.009 326.885 281.332 327.228 280.879C327.571 280.427 328.179 280.372 328.584 280.753L332.66 284.606C333.065 284.991 333.115 285.668 332.772 286.121C332.582 286.372 332.311 286.5 332.038 286.5Z" fill="#000033"/>
<path fill-rule="evenodd" clip-rule="evenodd" d="M319.037 301.5C318.82 301.5 318.602 301.419 318.422 301.249L314.346 297.42C313.938 297.037 313.883 296.353 314.223 295.891C314.56 295.432 315.167 295.366 315.578 295.753L319.654 299.582C320.062 299.965 320.117 300.649 319.777 301.111C319.587 301.368 319.313 301.5 319.037 301.5Z" fill="#000033"/>
<path fill-rule="evenodd" clip-rule="evenodd" d="M302.966 301.5H296.034C295.463 301.5 295 301.039 295 300.467V293.533C295 292.961 295.463 292.5 296.034 292.5H300.048C300.619 292.5 301.082 292.961 301.082 293.533C301.082 294.105 300.619 294.566 300.048 294.566H297.068V299.434H301.932V293.533C301.932 292.961 302.395 292.5 302.966 292.5C303.537 292.5 304 292.961 304 293.533V300.467C304 301.039 303.537 301.5 302.966 301.5Z" fill="#000033"/>
<path fill-rule="evenodd" clip-rule="evenodd" d="M302.966 288.5H296.034C295.463 288.5 295 288.039 295 287.467V280.533C295 279.961 295.463 279.5 296.034 279.5H300.048C300.619 279.5 301.082 279.961 301.082 280.533C301.082 281.105 300.619 281.566 300.048 281.566H297.068V286.434H301.932V280.533C301.932 279.961 302.395 279.5 302.966 279.5C303.537 279.5 304 279.961 304 280.533V287.467C304 288.039 303.537 288.5 302.966 288.5Z" fill="#000033"/>
<path fill-rule="evenodd" clip-rule="evenodd" d="M302.966 275.5H296.034C295.463 275.5 295 275.042 295 274.474V267.526C295 266.958 295.463 266.5 296.034 266.5H300.048C300.619 266.5 301.082 266.958 301.082 267.526C301.082 268.094 300.619 268.552 300.048 268.552H297.068V273.448H301.932V267.526C301.932 266.958 302.395 266.5 302.966 266.5C303.537 266.5 304 266.958 304 267.526V274.474C304 275.042 303.537 275.5 302.966 275.5Z" fill="#000033"/>
<path fill-rule="evenodd" clip-rule="evenodd" d="M323.007 274.5H307.993C307.445 274.5 307 274.054 307 273.5C307 272.946 307.445 272.5 307.993 272.5H323.007C323.555 272.5 324 272.946 324 273.5C324 274.054 323.555 274.5 323.007 274.5Z" fill="#000033"/>
<path fill-rule="evenodd" clip-rule="evenodd" d="M314.007 269.5H307.993C307.445 269.5 307 269.054 307 268.5C307 267.946 307.445 267.5 307.993 267.5H314.007C314.555 267.5 315 267.946 315 268.5C315 269.054 314.555 269.5 314.007 269.5Z" fill="#000033"/>
<path fill-rule="evenodd" clip-rule="evenodd" d="M318.995 287.5H308.005C307.45 287.5 307 287.054 307 286.5C307 285.946 307.45 285.5 308.005 285.5H318.995C319.55 285.5 320 285.946 320 286.5C320 287.054 319.55 287.5 318.995 287.5Z" fill="#000033"/>
<path fill-rule="evenodd" clip-rule="evenodd" d="M323.007 282.5H307.993C307.445 282.5 307 282.054 307 281.5C307 280.946 307.445 280.5 307.993 280.5H323.007C323.555 280.5 324 280.946 324 281.5C324 282.054 323.555 282.5 323.007 282.5Z" fill="#000033"/>
<path fill-rule="evenodd" clip-rule="evenodd" d="M311.011 300.5H307.989C307.443 300.5 307 300.054 307 299.5C307 298.946 307.443 298.5 307.989 298.5H311.011C311.557 298.5 312 298.946 312 299.5C312 300.054 311.557 300.5 311.011 300.5Z" fill="#000033"/>
<path fill-rule="evenodd" clip-rule="evenodd" d="M312.038 295.5H307.962C307.431 295.5 307 295.054 307 294.5C307 293.946 307.431 293.5 307.962 293.5H312.038C312.569 293.5 313 293.946 313 294.5C313 295.054 312.569 295.5 312.038 295.5Z" fill="#000033"/>
<g filter="url(#filter1_d)">
<path fill-rule="evenodd" clip-rule="evenodd" d="M253.32 269.31C246.342 257.459 233.656 258.919 223.397 265.314C218.463 268.389 212.07 264.843 212.07 259.033V216.136H166.284C162.16 217.623 160.011 222.613 162.383 226.763C166.505 233.973 170.099 241.072 165.72 249.135C160.394 258.941 147.198 262.579 137.58 256.929C125.718 249.963 127.172 237.283 133.565 227.025C136.172 222.841 134.004 217.625 129.739 216.136H100.584H83.8419L83.8297 215.781H83.1917V215H83V219.318V262.062V297.526V342.087V344H83.6373H92.2513H101.769H129.045H166.837H192.225H212.07V300.544C212.07 294.862 218.213 291.3 223.151 294.117C230.367 298.232 237.473 301.821 245.537 297.44C255.346 292.11 258.978 278.919 253.32 269.31Z" fill="#F3F5F5"/>
</g>
<circle cx="148.5" cy="275.8" r="4.5" fill="#00E599"/>
<path fill-rule="evenodd" clip-rule="evenodd" d="M148.304 271.323C145.989 271.323 144.105 273.206 144.105 275.522C144.105 277.837 145.989 279.721 148.304 279.721C150.62 279.721 152.503 277.837 152.503 275.522C152.503 273.206 150.62 271.323 148.304 271.323ZM148.304 281.545C144.983 281.545 142.281 278.843 142.281 275.522C142.281 272.201 144.983 269.501 148.304 269.501C151.625 269.501 154.326 272.201 154.326 275.522C154.326 278.843 151.625 281.545 148.304 281.545Z" fill="#000033"/>
<path fill-rule="evenodd" clip-rule="evenodd" d="M142.943 282.857L139.196 284.307C138.542 284.56 138.101 285.204 138.101 285.906V294.472C138.101 295.697 139.096 296.692 140.32 296.692H156.29C157.512 296.692 158.507 295.697 158.507 294.472V285.906C158.507 285.204 158.067 284.56 157.412 284.307L153.666 282.857L149.094 290.788C148.769 291.353 147.84 291.353 147.515 290.788L142.943 282.857ZM156.29 298.515H140.32C138.092 298.515 136.278 296.7 136.278 294.472V285.906C136.278 284.455 137.187 283.129 138.539 282.607L143.013 280.875C143.433 280.715 143.909 280.88 144.132 281.269L148.304 288.507L152.477 281.269C152.701 280.879 153.175 280.713 153.595 280.875L158.069 282.607C159.422 283.129 160.331 284.455 160.331 285.906V294.472C160.331 296.7 158.518 298.515 156.29 298.515Z" fill="#000033"/>
<path fill-rule="evenodd" clip-rule="evenodd" d="M156.74 310.031C156.716 310.031 156.691 310.03 156.667 310.028L150.237 309.52C149.735 309.481 149.36 309.043 149.399 308.541C149.439 308.038 149.886 307.658 150.379 307.704L156.81 308.21C157.312 308.251 157.687 308.69 157.647 309.192C157.609 309.668 157.21 310.031 156.74 310.031Z" fill="#000033"/>
<path fill-rule="evenodd" clip-rule="evenodd" d="M153.517 320.204H128.629C128.126 320.204 127.717 319.796 127.717 319.293C127.717 318.788 128.126 318.382 128.629 318.382H153.517C154.779 318.382 155.99 317.994 157.016 317.258L167.352 309.86C167.856 309.5 168.351 309.095 168.828 308.657C169.026 308.473 169.228 308.293 169.43 308.114C170 307.606 170.538 307.128 171.02 306.555C171.806 305.617 172.326 304.416 172.442 303.258C172.48 302.896 172.32 302.56 172.025 302.384C171.25 301.922 170.292 301.932 169.526 302.407L157.679 309.752C157.046 310.145 156.241 310.122 155.633 309.692C155.024 309.261 154.732 308.512 154.892 307.783C154.927 307.572 155.241 305.381 153.297 305.006L142.7 303.597C140.97 303.369 139.623 303.327 138.261 303.812L128.936 307.143C128.463 307.311 127.939 307.066 127.77 306.592C127.601 306.118 127.848 305.596 128.322 305.427L137.649 302.096C139.349 301.488 140.994 301.534 142.939 301.79L153.591 303.207C156.641 303.796 156.94 306.689 156.68 308.139L156.703 308.211L168.565 300.858C169.912 300.021 171.596 300.005 172.96 300.819C173.869 301.363 174.367 302.367 174.257 303.442C174.103 304.955 173.432 306.516 172.415 307.727C171.849 308.401 171.236 308.948 170.642 309.475C170.449 309.648 170.254 309.821 170.063 309.996C169.533 310.487 168.978 310.939 168.413 311.343L158.077 318.742C156.739 319.698 155.162 320.204 153.517 320.204Z" fill="#000033"/>
<path fill-rule="evenodd" clip-rule="evenodd" d="M156.74 310.031C156.716 310.031 156.691 310.03 156.667 310.028L150.237 309.52C149.735 309.481 149.36 309.043 149.399 308.541C149.439 308.038 149.886 307.658 150.379 307.704L156.81 308.21C157.312 308.251 157.687 308.69 157.647 309.192C157.609 309.668 157.21 310.031 156.74 310.031Z" fill="#000033"/>
<mask id="mask0" mask-type="alpha" maskUnits="userSpaceOnUse" x="127" y="302" width="3" height="21">
<path fill-rule="evenodd" clip-rule="evenodd" d="M127.717 302.303H129.54V322.813H127.717V302.303Z" fill="white"/>
</mask>
<g mask="url(#mask0)">
<path fill-rule="evenodd" clip-rule="evenodd" d="M128.629 322.814C128.126 322.814 127.717 322.405 127.717 321.901V303.215C127.717 302.712 128.126 302.303 128.629 302.303C129.132 302.303 129.54 302.712 129.54 303.215V321.901C129.54 322.405 129.132 322.814 128.629 322.814Z" fill="#000033"/>
</g>
<mask id="mask1" mask-type="alpha" maskUnits="userSpaceOnUse" x="121" y="302" width="3" height="21">
<path fill-rule="evenodd" clip-rule="evenodd" d="M121.5 302.303H123.323V322.813H121.5V302.303Z" fill="white"/>
</mask>
<g mask="url(#mask1)">
<path fill-rule="evenodd" clip-rule="evenodd" d="M122.412 322.814C121.908 322.814 121.5 322.405 121.5 321.901V303.215C121.5 302.712 121.908 302.303 122.412 302.303C122.915 302.303 123.323 302.712 123.323 303.215V321.901C123.323 322.405 122.915 322.814 122.412 322.814Z" fill="#000033"/>
</g>
<g filter="url(#filter2_d)">
<path fill-rule="evenodd" clip-rule="evenodd" d="M212.778 161.145C211.732 156.031 206.795 154.026 201.977 156.632C194.681 160.577 188.215 164.091 180.172 159.701C170.388 154.362 166.239 141.393 171.902 131.796C178.885 119.96 191.545 121.437 201.776 127.842C206.157 130.585 211.69 128.075 212.857 123.392L212.915 96.1426L212.953 78.0298L212.954 77.3929L198.297 77.3651L89.6705 77.1693L89.67 77.1582L84.1208 77.1483L84.1198 77.7847L84.0845 94.5095L84.0234 123.635C83.9651 123.8 83.8921 123.956 83.8229 124.116L83.7521 159.682C83.8184 159.835 83.89 159.984 83.9465 160.143L83.8502 206.086L84.4874 206.087L84.4989 206.442L101.21 206.472L130.312 206.524C134.565 208.02 136.719 213.238 134.108 217.416C127.707 227.657 126.23 240.328 138.056 247.313C147.645 252.977 160.824 249.365 166.161 239.572C170.548 231.521 166.974 224.419 162.875 217.206C160.514 213.053 162.67 208.069 166.79 206.59L212.696 206.672L212.733 187.789L212.722 187.789L212.778 161.145Z" fill="#F3F5F5"/>
</g>
<mask id="mask2" mask-type="alpha" maskUnits="userSpaceOnUse" x="111" y="112" width="26" height="21">
<path fill-rule="evenodd" clip-rule="evenodd" d="M111.648 112.555H136.486V132.8H111.648V112.555Z" fill="white"/>
</mask>
<g mask="url(#mask2)">
<path fill-rule="evenodd" clip-rule="evenodd" d="M117.164 114.612L113.773 120.486C113.404 121.124 113.404 121.915 113.772 122.553L118.024 129.919C118.393 130.556 119.079 130.952 119.815 130.952H128.319C129.056 130.952 129.742 130.556 130.11 129.919L134.362 122.553C134.73 121.915 134.73 121.124 134.362 120.486L130.972 114.612V120.531C130.972 122.69 129.214 124.447 127.055 124.447H121.079C118.92 124.447 117.164 122.69 117.164 120.531V114.612ZM128.319 132.8H119.815C118.421 132.8 117.122 132.05 116.424 130.843L112.171 123.477C111.474 122.27 111.474 120.769 112.171 119.561L115.704 113.443C116.111 112.739 116.91 112.407 117.697 112.618C118.484 112.828 119.012 113.516 119.012 114.33V120.531C119.012 121.671 119.939 122.598 121.079 122.598H127.055C128.195 122.598 129.122 121.671 129.122 120.531V114.33C129.122 113.516 129.65 112.828 130.436 112.618C131.223 112.407 132.024 112.739 132.431 113.443L135.963 119.561C136.66 120.769 136.66 122.27 135.962 123.477L131.711 130.843C131.013 132.05 129.714 132.8 128.319 132.8Z" fill="black"/>
</g>
<path fill-rule="evenodd" clip-rule="evenodd" d="M119.608 157.77C119.537 157.77 119.48 157.829 119.48 157.904V162.075C119.48 162.15 119.537 162.21 119.608 162.21H128.232C128.303 162.21 128.36 162.15 128.36 162.075V157.904C128.36 157.829 128.303 157.77 128.232 157.77H119.608Z" fill="#00E599"/>
<path fill-rule="evenodd" clip-rule="evenodd" d="M138.057 157.798C137.986 157.798 137.929 157.858 137.929 157.933V162.104C137.929 162.179 137.986 162.238 138.057 162.238H146.681C146.752 162.238 146.809 162.179 146.809 162.104V157.933C146.809 157.858 146.752 157.798 146.681 157.798H138.057Z" fill="#00E599"/>
<path fill-rule="evenodd" clip-rule="evenodd" d="M120.854 156.098H127.281V132.801H120.854V156.098ZM128.205 157.967C128.172 157.967 128.14 157.965 128.107 157.961C128.084 157.958 128.051 157.953 128.018 157.947H120.115C120.082 157.953 120.05 157.958 120.027 157.961C119.768 157.992 119.507 157.905 119.312 157.729C119.117 157.554 119.005 157.304 119.005 157.041V131.877C119.005 131.365 119.419 130.952 119.93 130.952H128.205C128.715 130.952 129.129 131.365 129.129 131.877V157.041C129.129 157.304 129.018 157.554 128.823 157.729C128.652 157.882 128.432 157.967 128.205 157.967Z" fill="black"/>
<path fill-rule="evenodd" clip-rule="evenodd" d="M120.854 163.744V164.736C120.854 166.508 122.295 167.949 124.067 167.949C125.839 167.949 127.281 166.508 127.281 164.736V163.744H120.854ZM124.067 169.798C121.276 169.798 119.005 167.527 119.005 164.736V162.801C119.005 162.542 119.114 162.295 119.304 162.119C119.495 161.945 119.746 161.857 120.008 161.88C120.037 161.882 120.077 161.888 120.116 161.895H128.02C128.058 161.888 128.097 161.882 128.125 161.88C128.39 161.859 128.64 161.946 128.83 162.119C129.02 162.295 129.128 162.542 129.128 162.801V164.736C129.128 167.527 126.858 169.798 124.067 169.798Z" fill="black"/>
<path fill-rule="evenodd" clip-rule="evenodd" d="M120.027 157.947C119.96 157.947 119.908 158 119.908 158.067V161.776C119.908 161.843 119.96 161.896 120.027 161.896H128.106C128.173 161.896 128.227 161.843 128.227 161.776V158.067C128.227 158 128.173 157.947 128.106 157.947H120.027ZM128.106 163.744H120.027C118.943 163.744 118.059 162.861 118.059 161.776V158.067C118.059 156.982 118.943 156.098 120.027 156.098H128.106C129.193 156.098 130.076 156.982 130.076 158.067V161.776C130.076 162.861 129.193 163.744 128.106 163.744Z" fill="black"/>
<path fill-rule="evenodd" clip-rule="evenodd" d="M138.91 156.098H145.337V144.737H138.91V156.098ZM146.261 157.967C146.229 157.967 146.196 157.965 146.164 157.961C146.14 157.958 146.108 157.953 146.075 157.947H138.172C138.139 157.953 138.107 157.958 138.084 157.961C137.826 157.992 137.564 157.905 137.369 157.729C137.174 157.554 137.062 157.304 137.062 157.041V143.813C137.062 143.302 137.477 142.888 137.986 142.888H146.261C146.772 142.888 147.186 143.302 147.186 143.813V157.041C147.186 157.304 147.074 157.554 146.879 157.729C146.709 157.882 146.488 157.967 146.261 157.967Z" fill="black"/>
<path fill-rule="evenodd" clip-rule="evenodd" d="M138.91 163.744V164.736C138.91 166.508 140.352 167.949 142.124 167.949C143.896 167.949 145.337 166.508 145.337 164.736V163.744H138.91ZM142.124 169.798C139.333 169.798 137.062 167.527 137.062 164.736V162.801C137.062 162.542 137.171 162.295 137.361 162.119C137.552 161.945 137.804 161.857 138.065 161.88C138.094 161.882 138.133 161.888 138.173 161.895H146.077C146.116 161.888 146.154 161.882 146.182 161.88C146.448 161.859 146.697 161.946 146.887 162.119C147.078 162.295 147.186 162.542 147.186 162.801V164.736C147.186 167.527 144.915 169.798 142.124 169.798Z" fill="black"/>
<path fill-rule="evenodd" clip-rule="evenodd" d="M138.084 157.947C138.017 157.947 137.964 158 137.964 158.067V161.776C137.964 161.843 138.017 161.896 138.084 161.896H146.163C146.23 161.896 146.284 161.843 146.284 161.776V158.067C146.284 158 146.23 157.947 146.163 157.947H138.084ZM146.163 163.744H138.084C136.999 163.744 136.116 162.861 136.116 161.776V158.067C136.116 156.982 136.999 156.098 138.084 156.098H146.163C147.25 156.098 148.132 156.982 148.132 158.067V161.776C148.132 162.861 147.25 163.744 146.163 163.744Z" fill="black"/>
<path fill-rule="evenodd" clip-rule="evenodd" d="M139.414 142.889H144.834L143.435 139.772H140.813L139.414 142.889ZM146.262 144.737H137.986C137.673 144.737 137.381 144.579 137.211 144.315C137.041 144.052 137.015 143.72 137.143 143.434L139.371 138.47C139.521 138.137 139.851 137.924 140.214 137.924H144.034C144.398 137.924 144.728 138.137 144.877 138.47L147.104 143.434C147.233 143.72 147.207 144.052 147.037 144.315C146.867 144.579 146.575 144.737 146.262 144.737Z" fill="black"/>
<path fill-rule="evenodd" clip-rule="evenodd" d="M141.138 137.924H143.109V121.566H141.138V137.924ZM144.034 139.773H140.214C139.704 139.773 139.29 139.359 139.29 138.848V120.642C139.29 120.131 139.704 119.717 140.214 119.717H144.034C144.544 119.717 144.958 120.131 144.958 120.642V138.848C144.958 139.359 144.544 139.773 144.034 139.773Z" fill="black"/>
<path fill-rule="evenodd" clip-rule="evenodd" d="M139.834 119.717H144.415L143.328 115.743H140.919L139.834 119.717ZM145.625 121.566H138.622C138.334 121.566 138.063 121.432 137.888 121.202C137.713 120.973 137.655 120.676 137.731 120.398L139.323 114.575C139.432 114.173 139.797 113.895 140.214 113.895H144.034C144.45 113.895 144.816 114.173 144.925 114.575L146.518 120.398C146.593 120.676 146.535 120.973 146.359 121.202C146.185 121.432 145.913 121.566 145.625 121.566Z" fill="black"/>
<g filter="url(#filter3_d)">
<path fill-rule="evenodd" clip-rule="evenodd" d="M356.209 192.365L397.692 72.9319L397.091 72.7225L275.965 30.5105L261.509 72.1295C259.602 77.6213 252.408 78.8719 248.765 74.3439C241.189 64.9273 229.704 59.3776 219.232 68.2858C210.742 75.5086 209.836 89.1707 217.337 97.4323C223.505 104.224 231.384 103.168 239.541 101.649C245.122 100.611 249.747 105.995 247.881 111.366L233.615 152.441L276.274 167.307C280.922 167.658 284.986 163.48 284.068 158.554C282.548 150.385 281.489 142.493 288.266 136.312C296.509 128.793 310.149 129.691 317.365 138.193C326.264 148.677 320.73 160.183 311.334 167.778C307.31 171.031 307.873 177.091 311.916 179.728L337.641 188.693L354.74 194.653L355.342 194.862L356.209 192.365Z" fill="#F3F5F5"/>
</g>
<mask id="mask3" mask-type="alpha" maskUnits="userSpaceOnUse" x="296" y="52" width="39" height="44">
<path fill-rule="evenodd" clip-rule="evenodd" d="M308.501 52.6377L334.669 62.162L322.361 95.9759L296.193 86.4516L308.501 52.6377Z" fill="white"/>
</mask>
<g mask="url(#mask3)">
<path fill-rule="evenodd" clip-rule="evenodd" d="M317.907 94.3546C317.391 94.1667 317.125 93.5961 317.313 93.0799C318.333 90.2777 316.095 88.0367 312.288 84.6791C310.479 83.0843 308.61 81.4354 307.171 79.5108C303.325 74.3654 302.621 68.2787 305.136 61.9084C307.004 57.1756 309.96 53.9897 310.085 53.8565C310.31 53.6165 310.639 53.5032 310.963 53.5539C311.288 53.6046 311.567 53.8125 311.709 54.1094C313.182 57.2085 314.849 58.7724 317.156 60.9371C318.876 62.5507 320.826 64.3798 323.211 67.3014C326.564 71.4093 327.519 77.4589 325.973 84.7961C324.826 90.2339 322.746 94.428 322.658 94.6038C322.432 95.0556 321.903 95.266 321.429 95.0933L321.427 95.0929C320.952 94.9193 320.683 94.4169 320.802 93.9255C321.733 90.0694 321.857 86.3662 321.172 82.9191C320.626 80.172 319.567 77.5747 318.023 75.1996C315.395 71.1553 312.275 69.161 312.244 69.1414C311.779 68.8486 311.639 68.2345 311.932 67.7697C312.225 67.3053 312.84 67.1657 313.304 67.4587C313.447 67.5484 316.828 69.7093 319.691 74.1158C321.5 76.8988 323.323 80.9733 323.564 86.2833C324.998 80.8303 325.734 73.5374 321.67 68.5592C319.368 65.7399 317.47 63.959 315.795 62.3876C313.756 60.4747 312.085 58.9071 310.618 56.3232C309.637 57.5917 308.072 59.8648 306.964 62.6939C304.71 68.4491 305.315 73.7063 308.764 78.3198C310.08 80.0797 311.871 81.6596 313.603 83.1873C317.112 86.2815 320.739 89.481 319.182 93.7602C318.994 94.2764 318.423 94.5424 317.907 94.3546Z" fill="#000033"/>
</g>
<path fill-rule="evenodd" clip-rule="evenodd" d="M324.476 96.7457C323.96 96.5578 323.694 95.9872 323.882 95.471C325.105 92.1093 328.672 91.7915 332.12 91.4844C333.531 91.3587 334.99 91.2286 336.355 90.9079C340.285 89.9847 342.982 87.433 344.37 83.324C344.984 81.5065 345.2 79.7612 345.273 78.597C343.409 79.2282 341.829 79.3159 339.928 79.4212C338.286 79.5122 336.426 79.6154 333.871 80.1016C331.942 80.4686 330.807 81.2249 330.12 81.7618C329.688 82.1 329.063 82.0239 328.724 81.5911C328.386 81.1585 328.462 80.5335 328.895 80.1951C330.245 79.1392 331.708 78.4886 333.499 78.1478C336.184 77.6368 338.114 77.5298 339.818 77.4353C342.061 77.3109 343.681 77.2211 345.879 76.2161C346.178 76.0792 346.525 76.0993 346.807 76.2694C347.089 76.4394 347.268 76.7377 347.286 77.066C347.293 77.1995 347.451 80.3749 346.275 83.8982C344.683 88.6701 341.409 91.7636 336.81 92.8442C335.307 93.1973 333.777 93.3336 332.297 93.4654C328.729 93.7833 326.504 94.0831 325.751 96.1513C325.563 96.6675 324.992 96.9335 324.476 96.7457Z" fill="#000033"/>
<path fill-rule="evenodd" clip-rule="evenodd" d="M312.794 118.817C312.277 118.63 312.011 118.059 312.199 117.543L320.834 93.8188C321.022 93.3026 321.592 93.0366 322.109 93.2244C322.625 93.4123 322.891 93.9828 322.703 94.4991L314.068 118.223C313.88 118.739 313.31 119.005 312.794 118.817Z" fill="#000033"/>
<circle cx="322.906" cy="117.44" r="2.55" transform="rotate(20 322.906 117.44)" fill="#00E599"/>
<circle cx="311.794" cy="120.632" r="2.55" transform="rotate(20 311.794 120.632)" fill="#00E599"/>
<circle cx="306.787" cy="107.05" r="2.55" transform="rotate(20 306.787 107.05)" fill="#00E599"/>
<path fill-rule="evenodd" clip-rule="evenodd" d="M312.794 118.817C312.003 118.53 311.126 118.939 310.838 119.729C310.55 120.52 310.959 121.397 311.75 121.685C312.54 121.973 313.418 121.564 313.705 120.773C313.993 119.982 313.584 119.105 312.794 118.817ZM311.07 123.554C309.249 122.891 308.306 120.87 308.969 119.049C309.632 117.228 311.653 116.286 313.474 116.948C315.295 117.611 316.237 119.632 315.575 121.453C314.912 123.274 312.891 124.217 311.07 123.554Z" fill="#000033"/>
<path fill-rule="evenodd" clip-rule="evenodd" d="M323.985 115.936C323.195 115.649 322.317 116.058 322.03 116.848C321.742 117.639 322.151 118.516 322.941 118.804C323.732 119.091 324.609 118.682 324.897 117.892C325.185 117.101 324.775 116.224 323.985 115.936ZM322.261 120.673C320.44 120.01 319.498 117.989 320.16 116.168C320.823 114.347 322.844 113.405 324.665 114.067C326.486 114.73 327.429 116.751 326.766 118.572C326.103 120.393 324.082 121.336 322.261 120.673Z" fill="#000033"/>
<path fill-rule="evenodd" clip-rule="evenodd" d="M307.407 105.781C306.616 105.494 305.739 105.903 305.451 106.693C305.163 107.484 305.573 108.361 306.363 108.649C307.153 108.936 308.031 108.527 308.319 107.737C308.606 106.946 308.197 106.069 307.407 105.781ZM305.683 110.518C303.862 109.855 302.919 107.834 303.582 106.013C304.245 104.192 306.266 103.249 308.087 103.912C309.908 104.575 310.85 106.596 310.188 108.417C309.525 110.238 307.504 111.181 305.683 110.518Z" fill="#000033"/>
<path fill-rule="evenodd" clip-rule="evenodd" d="M321.943 115.813C321.704 115.726 321.498 115.548 321.382 115.299L318.907 109.991C318.795 109.752 318.783 109.479 318.874 109.231L323.882 95.471C324.07 94.9548 324.64 94.6888 325.156 94.8766C325.673 95.0645 325.939 95.6351 325.751 96.1513L320.884 109.524L323.184 114.458C323.417 114.956 323.201 115.548 322.703 115.78C322.455 115.896 322.182 115.9 321.943 115.813Z" fill="#000033"/>
<path fill-rule="evenodd" clip-rule="evenodd" d="M308.952 106.851C308.713 106.764 308.507 106.586 308.391 106.337C308.159 105.839 308.374 105.248 308.872 105.015L313.806 102.715L317.313 93.0801C317.5 92.5638 318.071 92.2978 318.587 92.4857C319.103 92.6735 319.369 93.2441 319.182 93.7603L315.534 103.782C315.444 104.03 315.259 104.232 315.02 104.343L309.712 106.818C309.463 106.934 309.191 106.938 308.952 106.851Z" fill="#000033"/>
<defs>
<filter id="filter0_d" x="165.5" y="142" width="197" height="241" filterUnits="userSpaceOnUse" color-interpolation-filters="sRGB">
<feFlood flood-opacity="0" result="BackgroundImageFix"/>
<feColorMatrix in="SourceAlpha" type="matrix" values="0 0 0 0 0 0 0 0 0 0 0 0 0 0 0 0 0 0 127 0"/>
<feOffset dx="-30" dy="4"/>
<feGaussianBlur stdDeviation="17"/>
<feColorMatrix type="matrix" values="0 0 0 0 0 0 0 0 0 0 0 0 0 0 0 0 0 0 0.237341 0"/>
<feBlend mode="normal" in2="BackgroundImageFix" result="effect1_dropShadow"/>
<feBlend mode="normal" in="SourceGraphic" in2="effect1_dropShadow" result="shape"/>
</filter>
<filter id="filter1_d" x="19" y="185" width="241" height="197" filterUnits="userSpaceOnUse" color-interpolation-filters="sRGB">
<feFlood flood-opacity="0" result="BackgroundImageFix"/>
<feColorMatrix in="SourceAlpha" type="matrix" values="0 0 0 0 0 0 0 0 0 0 0 0 0 0 0 0 0 0 127 0"/>
<feOffset dx="-30" dy="4"/>
<feGaussianBlur stdDeviation="17"/>
<feColorMatrix type="matrix" values="0 0 0 0 0 0 0 0 0 0 0 0 0 0 0 0 0 0 0.237341 0"/>
<feBlend mode="normal" in2="BackgroundImageFix" result="effect1_dropShadow"/>
<feBlend mode="normal" in="SourceGraphic" in2="effect1_dropShadow" result="shape"/>
</filter>
<filter id="filter2_d" x="0.143311" y="31.8054" width="232.194" height="263.523" filterUnits="userSpaceOnUse" color-interpolation-filters="sRGB">
<feFlood flood-opacity="0" result="BackgroundImageFix"/>
<feColorMatrix in="SourceAlpha" type="matrix" values="0 0 0 0 0 0 0 0 0 0 0 0 0 0 0 0 0 0 127 0"/>
<feOffset dx="-30" dy="4"/>
<feGaussianBlur stdDeviation="17"/>
<feColorMatrix type="matrix" values="0 0 0 0 0 0 0 0 0 0 0 0 0 0 0 0 0 0 0.237341 0"/>
<feBlend mode="normal" in2="BackgroundImageFix" result="effect1_dropShadow"/>
<feBlend mode="normal" in="SourceGraphic" in2="effect1_dropShadow" result="shape"/>
</filter>
<filter id="filter3_d" x="148.242" y="0.510498" width="253.45" height="232.352" filterUnits="userSpaceOnUse" color-interpolation-filters="sRGB">
<feFlood flood-opacity="0" result="BackgroundImageFix"/>
<feColorMatrix in="SourceAlpha" type="matrix" values="0 0 0 0 0 0 0 0 0 0 0 0 0 0 0 0 0 0 127 0"/>
<feOffset dx="-30" dy="4"/>
<feGaussianBlur stdDeviation="17"/>
<feColorMatrix type="matrix" values="0 0 0 0 0 0 0 0 0 0 0 0 0 0 0 0 0 0 0.237341 0"/>
<feBlend mode="normal" in2="BackgroundImageFix" result="effect1_dropShadow"/>
<feBlend mode="normal" in="SourceGraphic" in2="effect1_dropShadow" result="shape"/>
</filter>
</defs>
</svg>
